<mxfile host="Electron" modified="2024-05-18T11:39:00.088Z" agent="Mozilla/5.0 (Macintosh; Intel Mac OS X 10_15_7) AppleWebKit/537.36 (KHTML, like Gecko) draw.io/24.4.0 Chrome/120.0.6099.109 Electron/28.1.0 Safari/537.36" etag="4IB6zqaQoSqgGJkq1YqQ" version="24.4.0" type="device">
  <diagram id="C5RBs43oDa-KdzZeNtuy" name="Page-1">
    <mxGraphModel dx="956" dy="567" grid="1" gridSize="10" guides="1" tooltips="1" connect="1" arrows="1" fold="1" page="1" pageScale="1" pageWidth="827" pageHeight="1169" math="0" shadow="0">
      <root>
        <mxCell id="WIyWlLk6GJQsqaUBKTNV-0" />
        <mxCell id="WIyWlLk6GJQsqaUBKTNV-1" parent="WIyWlLk6GJQsqaUBKTNV-0" />
        <mxCell id="IjD-qpXpODSvRZLo4zJF-0" value="Start" style="ellipse;whiteSpace=wrap;html=1;fillColor=#e51400;strokeColor=#B20000;fontColor=#ffffff;" parent="WIyWlLk6GJQsqaUBKTNV-1" vertex="1">
          <mxGeometry x="40" y="80" width="120" height="40" as="geometry" />
        </mxCell>
        <mxCell id="GrfxNoX1KZF58iYZK9aE-7" value="Matrixmultiplikation" style="text;strokeColor=none;fillColor=none;html=1;align=left;verticalAlign=middle;whiteSpace=wrap;rounded=0;fontSize=16;" parent="WIyWlLk6GJQsqaUBKTNV-1" vertex="1">
          <mxGeometry x="40" y="40" width="270" height="40" as="geometry" />
        </mxCell>
        <mxCell id="ASxKe1lXr5-sCJm-wnuk-3" style="edgeStyle=none;curved=1;rounded=0;orthogonalLoop=1;jettySize=auto;html=1;entryX=0.5;entryY=0;entryDx=0;entryDy=0;fontSize=12;startSize=8;endSize=8;" edge="1" parent="WIyWlLk6GJQsqaUBKTNV-1" source="GrfxNoX1KZF58iYZK9aE-24" target="ASxKe1lXr5-sCJm-wnuk-2">
          <mxGeometry relative="1" as="geometry" />
        </mxCell>
        <mxCell id="GrfxNoX1KZF58iYZK9aE-24" value="zeile1 = 1,0,0,0&lt;br&gt;zeile2 = 0,1,0,0&lt;br&gt;zeile3 = 0,0,1,0&lt;br&gt;zeile3 = 0,0,1,1" style="rounded=0;whiteSpace=wrap;html=1;fillColor=#0050ef;strokeColor=#001DBC;fontColor=#ffffff;" parent="WIyWlLk6GJQsqaUBKTNV-1" vertex="1">
          <mxGeometry x="40" y="160" width="120" height="80" as="geometry" />
        </mxCell>
        <mxCell id="eVRvptMKWYpkK7orwd6t-19" value="Ende" style="ellipse;whiteSpace=wrap;html=1;fillColor=#e51400;strokeColor=#B20000;fontColor=#ffffff;" parent="WIyWlLk6GJQsqaUBKTNV-1" vertex="1">
          <mxGeometry x="40" y="600" width="120" height="40" as="geometry" />
        </mxCell>
        <mxCell id="eVRvptMKWYpkK7orwd6t-26" style="edgeStyle=none;curved=1;rounded=0;orthogonalLoop=1;jettySize=auto;html=1;fontSize=12;startSize=8;endSize=8;" parent="WIyWlLk6GJQsqaUBKTNV-1" source="eVRvptMKWYpkK7orwd6t-22" target="eVRvptMKWYpkK7orwd6t-19" edge="1">
          <mxGeometry relative="1" as="geometry" />
        </mxCell>
        <mxCell id="eVRvptMKWYpkK7orwd6t-22" value="print e1 bis e4" style="shape=parallelogram;perimeter=parallelogramPerimeter;whiteSpace=wrap;html=1;fixedSize=1;fillColor=#76608a;strokeColor=#432D57;fontColor=#ffffff;" parent="WIyWlLk6GJQsqaUBKTNV-1" vertex="1">
          <mxGeometry x="40" y="520" width="120" height="40" as="geometry" />
        </mxCell>
        <mxCell id="ASxKe1lXr5-sCJm-wnuk-1" style="edgeStyle=none;curved=1;rounded=0;orthogonalLoop=1;jettySize=auto;html=1;exitX=0.5;exitY=1;exitDx=0;exitDy=0;entryX=0.494;entryY=-0.046;entryDx=0;entryDy=0;entryPerimeter=0;fontSize=12;startSize=8;endSize=8;" edge="1" parent="WIyWlLk6GJQsqaUBKTNV-1" source="IjD-qpXpODSvRZLo4zJF-0" target="GrfxNoX1KZF58iYZK9aE-24">
          <mxGeometry relative="1" as="geometry" />
        </mxCell>
        <mxCell id="ASxKe1lXr5-sCJm-wnuk-7" style="edgeStyle=none;curved=1;rounded=0;orthogonalLoop=1;jettySize=auto;html=1;entryX=0.5;entryY=0;entryDx=0;entryDy=0;fontSize=12;startSize=8;endSize=8;" edge="1" parent="WIyWlLk6GJQsqaUBKTNV-1" source="ASxKe1lXr5-sCJm-wnuk-2" target="ASxKe1lXr5-sCJm-wnuk-6">
          <mxGeometry relative="1" as="geometry" />
        </mxCell>
        <mxCell id="ASxKe1lXr5-sCJm-wnuk-2" value="zeile5 = 1,2,3,4&lt;br&gt;zeile6 = 5,6,7,8&lt;br&gt;zeile7 = 9,10,11,12&lt;br&gt;zeile8 = 13,14,15,15" style="rounded=0;whiteSpace=wrap;html=1;fillColor=#0050ef;strokeColor=#001DBC;fontColor=#ffffff;" vertex="1" parent="WIyWlLk6GJQsqaUBKTNV-1">
          <mxGeometry x="40" y="280" width="120" height="80" as="geometry" />
        </mxCell>
        <mxCell id="ASxKe1lXr5-sCJm-wnuk-4" value="Identitätsmatrix" style="text;strokeColor=none;fillColor=none;html=1;align=left;verticalAlign=middle;whiteSpace=wrap;rounded=0;fontSize=16;" vertex="1" parent="WIyWlLk6GJQsqaUBKTNV-1">
          <mxGeometry x="200" y="180" width="120" height="40" as="geometry" />
        </mxCell>
        <mxCell id="ASxKe1lXr5-sCJm-wnuk-5" value="Matrix 1" style="text;strokeColor=none;fillColor=none;html=1;align=left;verticalAlign=middle;whiteSpace=wrap;rounded=0;fontSize=16;" vertex="1" parent="WIyWlLk6GJQsqaUBKTNV-1">
          <mxGeometry x="200" y="300" width="120" height="40" as="geometry" />
        </mxCell>
        <mxCell id="ASxKe1lXr5-sCJm-wnuk-9" style="edgeStyle=none;curved=1;rounded=0;orthogonalLoop=1;jettySize=auto;html=1;exitX=0.5;exitY=1;exitDx=0;exitDy=0;entryX=0.5;entryY=0;entryDx=0;entryDy=0;fontSize=12;startSize=8;endSize=8;" edge="1" parent="WIyWlLk6GJQsqaUBKTNV-1" source="ASxKe1lXr5-sCJm-wnuk-6" target="eVRvptMKWYpkK7orwd6t-22">
          <mxGeometry relative="1" as="geometry" />
        </mxCell>
        <mxCell id="ASxKe1lXr5-sCJm-wnuk-6" value="e1=zeile1 * zeile5&lt;br&gt;e2=zeile2 * zeile6&lt;br&gt;e3=zeile3 * zeile7&lt;br&gt;e4=zeile3 * zeile8" style="rounded=0;whiteSpace=wrap;html=1;fillColor=#0050ef;strokeColor=#001DBC;fontColor=#ffffff;" vertex="1" parent="WIyWlLk6GJQsqaUBKTNV-1">
          <mxGeometry x="40" y="400" width="120" height="80" as="geometry" />
        </mxCell>
        <mxCell id="ASxKe1lXr5-sCJm-wnuk-8" value="Identitätsmatrix * Matrix 1" style="text;strokeColor=none;fillColor=none;html=1;align=left;verticalAlign=middle;whiteSpace=wrap;rounded=0;fontSize=16;" vertex="1" parent="WIyWlLk6GJQsqaUBKTNV-1">
          <mxGeometry x="200" y="420" width="120" height="40" as="geometry" />
        </mxCell>
      </root>
    </mxGraphModel>
  </diagram>
</mxfile>
